<svg width="24" height="24" viewBox="0 0 24 24" fill="none" xmlns="http://www.w3.org/2000/svg">
<path d="M7 23C6.45 23 5.97917 22.8042 5.5875 22.4125C5.19583 22.0208 5 21.55 5 21V3C5 2.45 5.19583 1.97917 5.5875 1.5875C5.97917 1.19583 6.45 1 7 1H17C17.55 1 18.0208 1.19583 18.4125 1.5875C18.8042 1.97917 19 2.45 19 3V6.1C19.3 6.21667 19.5417 6.4 19.725 6.65C19.9083 6.9 20 7.18333 20 7.5V9.5C20 9.81667 19.9083 10.1 19.725 10.35C19.5417 10.6 19.3 10.7833 19 10.9V21C19 21.55 18.8042 22.0208 18.4125 22.4125C18.0208 22.8042 17.55 23 17 23H7ZM7 21H17V3H7V21ZM12.15 13L11.275 13.9C11.0917 14.0833 11 14.3125 11 14.5875C11 14.8625 11.1 15.1 11.3 15.3C11.4833 15.4833 11.7167 15.575 12 15.575C12.2833 15.575 12.5167 15.4833 12.7 15.3L15.3 12.7C15.4 12.6 15.4708 12.4917 15.5125 12.375C15.5542 12.2583 15.575 12.1333 15.575 12C15.575 11.8667 15.5542 11.7417 15.5125 11.625C15.4708 11.5083 15.4 11.4 15.3 11.3L12.7 8.7C12.5167 8.51667 12.2875 8.42083 12.0125 8.4125C11.7375 8.40417 11.5 8.5 11.3 8.7C11.1167 8.88333 11.0208 9.1125 11.0125 9.3875C11.0042 9.6625 11.0917 9.9 11.275 10.1L12.15 11H9C8.71667 11 8.47917 11.0958 8.2875 11.2875C8.09583 11.4792 8 11.7167 8 12C8 12.2833 8.09583 12.5208 8.2875 12.7125C8.47917 12.9042 8.71667 13 9 13H12.15Z" fill="url(#paint0_linear_50_215)"/>
<defs>
<linearGradient id="paint0_linear_50_215" x1="12.5" y1="1" x2="12.5" y2="23" gradientUnits="userSpaceOnUse">
<stop stop-color="#7CD367"/>
<stop offset="1" stop-color="#288511"/>
</linearGradient>
</defs>
</svg>
