<svg width="14" height="14" viewBox="0 0 14 14" fill="none" xmlns="http://www.w3.org/2000/svg">
<path d="M10.0156 13.7813C9.83854 13.7813 9.6901 13.7188 9.57031 13.5938C9.45052 13.4688 9.39063 13.3177 9.39063 13.1406C9.39063 12.9635 9.45052 12.8151 9.57031 12.6953C9.6901 12.5755 9.83854 12.5156 10.0156 12.5156C10.7031 12.5156 11.2917 12.2708 11.7813 11.7813C12.2708 11.2917 12.5156 10.7031 12.5156 10.0156C12.5156 9.83854 12.5781 9.6875 12.7031 9.5625C12.8281 9.4375 12.9792 9.375 13.1563 9.375C13.3333 9.375 13.4818 9.4375 13.6016 9.5625C13.7214 9.6875 13.7813 9.83854 13.7813 10.0156C13.7813 11.0573 13.4141 11.9453 12.6797 12.6797C11.9453 13.4141 11.0573 13.7813 10.0156 13.7813ZM0.640625 4.39063C0.463542 4.39063 0.3125 4.33073 0.1875 4.21094C0.0625 4.09115 0 3.94271 0 3.76563C0 2.72396 0.367188 1.83594 1.10156 1.10156C1.83594 0.367188 2.72396 0 3.76563 0C3.94271 0 4.09375 0.0598958 4.21875 0.179688C4.34375 0.299479 4.40625 0.447917 4.40625 0.625C4.40625 0.802083 4.34375 0.953125 4.21875 1.07813C4.09375 1.20313 3.94271 1.26563 3.76563 1.26563C3.07813 1.26563 2.48958 1.51042 2 2C1.51042 2.48958 1.26563 3.07813 1.26563 3.76563C1.26563 3.94271 1.20573 4.09115 1.08594 4.21094C0.966146 4.33073 0.817708 4.39063 0.640625 4.39063ZM11.4063 2.15625C11.5313 2.28125 11.5938 2.42708 11.5938 2.59375C11.5938 2.76042 11.5313 2.90625 11.4063 3.03125L7.4375 7.01563C7.32292 7.14063 7.17969 7.20052 7.00781 7.19531C6.83594 7.1901 6.6875 7.13021 6.5625 7.01563C6.4375 6.89063 6.375 6.74219 6.375 6.57031C6.375 6.39844 6.4375 6.25 6.5625 6.125L10.5313 2.15625C10.6563 2.03125 10.8021 1.96875 10.9688 1.96875C11.1354 1.96875 11.2813 2.03125 11.4063 2.15625ZM12.5156 4.14063C12.6406 4.26563 12.7031 4.41406 12.7031 4.58594C12.7031 4.75781 12.6406 4.90625 12.5156 5.03125L8.98438 8.5625C8.86979 8.67708 8.72656 8.73438 8.55469 8.73438C8.38281 8.73438 8.23438 8.67708 8.10938 8.5625C7.98438 8.4375 7.91927 8.28906 7.91406 8.11719C7.90885 7.94531 7.96875 7.79688 8.09375 7.67188L11.625 4.14063C11.75 4.01563 11.8984 3.95313 12.0703 3.95313C12.2422 3.95313 12.3906 4.01563 12.5156 4.14063ZM2.6875 11.0938C1.73958 10.1458 1.26563 9.00521 1.26563 7.67188C1.26563 6.33854 1.73958 5.19792 2.6875 4.25L4.125 2.8125C4.25 2.6875 4.39583 2.625 4.5625 2.625C4.72917 2.625 4.875 2.6875 5 2.8125L5.48438 3.29688C5.55729 3.36979 5.61979 3.44531 5.67188 3.52344C5.72396 3.60156 5.77604 3.68229 5.82813 3.76563L8.14063 1.4375C8.26563 1.3125 8.41406 1.25 8.58594 1.25C8.75781 1.25 8.90625 1.3125 9.03125 1.4375C9.15625 1.5625 9.21875 1.71094 9.21875 1.88281C9.21875 2.05469 9.15625 2.20313 9.03125 2.32813L6.32813 5.03125L5 6.34375L5.29688 6.64063C5.77604 7.11979 6.00521 7.69271 5.98438 8.35938C5.96354 9.02604 5.70833 9.60417 5.21875 10.0938L5.20313 10.1094C5.08854 10.224 4.94531 10.2813 4.77344 10.2813C4.60156 10.2813 4.45313 10.224 4.32813 10.1094C4.20313 9.98438 4.14063 9.83594 4.14063 9.66406C4.14063 9.49219 4.20313 9.34375 4.32813 9.21875C4.56771 8.97917 4.70052 8.69531 4.72656 8.36719C4.7526 8.03906 4.64583 7.75521 4.40625 7.51563L3.67188 6.79688C3.54688 6.67188 3.48438 6.52344 3.48438 6.35156C3.48438 6.17969 3.54688 6.03125 3.67188 5.90625L4.5625 5.03125C4.6875 4.90625 4.75 4.75781 4.75 4.58594C4.75 4.41406 4.6875 4.26563 4.5625 4.14063L3.5625 5.14063C2.85417 5.84896 2.5 6.69531 2.5 7.67969C2.5 8.66406 2.85417 9.51042 3.5625 10.2188C4.27083 10.9271 5.11979 11.2813 6.10938 11.2813C7.09896 11.2813 7.94792 10.9271 8.65625 10.2188L12.3906 6.46875C12.5156 6.34375 12.6641 6.28125 12.8359 6.28125C13.0078 6.28125 13.1563 6.34375 13.2813 6.46875C13.4063 6.59375 13.4688 6.74219 13.4688 6.91406C13.4688 7.08594 13.4063 7.23438 13.2813 7.35938L9.53125 11.0938C8.58333 12.0417 7.44271 12.5156 6.10938 12.5156C4.77604 12.5156 3.63542 12.0417 2.6875 11.0938Z" fill="#47CE25"/>
</svg>
