<svg width="31" height="32" viewBox="0 0 31 32" fill="none" xmlns="http://www.w3.org/2000/svg">
<g clip-path="url(#clip0_82_230)">
<rect width="31" height="32" rx="15.5" fill="white"/>
<path d="M13 2.74196L13.6538 3.53376C13.8173 3.74491 14.3077 4.23055 14.9615 4.48392C15.7788 4.80064 16.1058 5.11736 17.0865 5.7508L18.0673 6.38424L19.0481 7.17604L20.6827 8.28456L23.1346 10.0265L23.9519 11.2934L24.2788 11.7685L25.0962 13.1937L25.75 14.1439L25.9135 15.5691V16.9944C25.75 17.575 25.2923 19.0214 24.7692 20.1616C24.2462 21.3018 24.1154 21.2701 24.1154 21.1117L21.9904 23.1704L20.5192 24.4373L18.8846 25.7042L17.0865 26.8127L15.2885 27.7628L14.3077 28.713L13.6538 29.6632V29.9799L13.9808 30.6133C14.1442 30.6661 14.5365 30.8034 14.7981 30.93C15.0596 31.0567 15.234 30.9828 15.2885 30.93L16.4327 30.2966L17.7404 29.5048L19.8654 27.7628L21.5 26.6543L24.7692 23.9622L25.2596 23.6455L25.9135 23.1704L27.7115 21.2701L28.8558 19.6865L29.3462 18.8947L30 17.6278V15.8858L29.8365 15.094L29.3462 14.1439L27.875 11.7685L24.4423 8.28456L20.0288 4.80064L17.4135 2.5836L16.1058 1.7918L14.6346 1L13.9808 1.15836L13 2.10852V2.74196Z" fill="#27870F"/>
<path d="M8.10547 19.8574L8.17578 19.4297L9.45312 19.2715L10.625 12.6211H10.2676C10.0488 12.6211 9.80273 12.6348 9.5293 12.6621C9.25977 12.6895 9.06641 12.7148 8.94922 12.7383L8.50977 14.1973H8L8.38672 12H14.8496L14.4629 14.1973H13.9473L14.0234 12.7383C13.9141 12.7148 13.7129 12.6914 13.4199 12.668C13.1309 12.6445 12.8926 12.6328 12.7051 12.6328H12.3594L11.1875 19.2715L12.4062 19.4297L12.3359 19.8574H8.10547Z" fill="black"/>
<path d="M14.375 19.8574L14.4512 19.4238L15.4824 19.2715L16.6602 12.5859L15.6816 12.4277L15.7578 12H19.502L19.4258 12.4277L18.3887 12.5859L17.8789 15.4922H20.7383L21.248 12.5859L20.2695 12.4277L20.3457 12H24.1016L24.0254 12.4277L22.9824 12.5859L21.8047 19.2715L22.7891 19.4238L22.7129 19.8574H18.957L19.0332 19.4238L20.0703 19.2715L20.6211 16.1367H17.7617L17.2109 19.2715L18.1895 19.4238L18.1133 19.8574H14.375Z" fill="black"/>
<rect x="15.3159" y="10.9044" width="0.2" height="4.39355" transform="rotate(8.7802 15.3159 10.9044)" fill="white"/>
</g>
<defs>
<clipPath id="clip0_82_230">
<rect width="31" height="32" rx="15.5" fill="white"/>
</clipPath>
</defs>
</svg>
