<svg width="20" height="19" viewBox="0 0 20 19" fill="none" xmlns="http://www.w3.org/2000/svg">
<path d="M10 18.3425C8.63333 18.3425 7.34167 18.1017 6.125 17.6202C4.90833 17.1387 3.84583 16.4815 2.9375 15.6484C2.02917 14.8154 1.3125 13.8409 0.7875 12.7251C0.2625 11.6093 0 10.4246 0 9.17124C0 7.90255 0.2625 6.71411 0.7875 5.60592C1.3125 4.49773 2.02917 3.5271 2.9375 2.69405C3.84583 1.861 4.90833 1.20372 6.125 0.722235C7.34167 0.240745 8.63333 0 10 0C11.3833 0 12.6792 0.240745 13.8875 0.722235C15.0958 1.20372 16.1542 1.861 17.0625 2.69405C17.9708 3.5271 18.6875 4.49773 19.2125 5.60592C19.7375 6.71411 20 7.90255 20 9.17124C20 10.4246 19.7375 11.6093 19.2125 12.7251C18.6875 13.8409 17.9708 14.8154 17.0625 15.6484C16.1542 16.4815 15.0958 17.1387 13.8875 17.6202C12.6792 18.1017 11.3833 18.3425 10 18.3425ZM10 16.4624C10.4333 15.9121 10.8083 15.3389 11.125 14.7428C11.4417 14.1466 11.7 13.5123 11.9 12.8397H8.1C8.3 13.5123 8.55833 14.1466 8.875 14.7428C9.19167 15.3389 9.56667 15.9121 10 16.4624ZM7.4 16.0955C7.1 15.5911 6.8375 15.0676 6.6125 14.5249C6.3875 13.9823 6.2 13.4206 6.05 12.8397H3.1C3.58333 13.604 4.1875 14.2689 4.9125 14.8345C5.6375 15.4 6.46667 15.8204 7.4 16.0955ZM12.6 16.0955C13.5333 15.8204 14.3625 15.4 15.0875 14.8345C15.8125 14.2689 16.4167 13.604 16.9 12.8397H13.95C13.8 13.4206 13.6125 13.9823 13.3875 14.5249C13.1625 15.0676 12.9 15.5911 12.6 16.0955ZM2.25 11.0055H5.65C5.6 10.6998 5.5625 10.3979 5.5375 10.0998C5.5125 9.80176 5.5 9.49223 5.5 9.17124C5.5 8.85024 5.5125 8.54071 5.5375 8.24265C5.5625 7.94458 5.6 7.6427 5.65 7.33699H2.25C2.16667 7.6427 2.10417 7.94458 2.0625 8.24265C2.02083 8.54071 2 8.85024 2 9.17124C2 9.49223 2.02083 9.80176 2.0625 10.0998C2.10417 10.3979 2.16667 10.6998 2.25 11.0055ZM7.65 11.0055H12.35C12.4 10.6998 12.4375 10.3979 12.4625 10.0998C12.4875 9.80176 12.5 9.49223 12.5 9.17124C12.5 8.85024 12.4875 8.54071 12.4625 8.24265C12.4375 7.94458 12.4 7.6427 12.35 7.33699H7.65C7.6 7.6427 7.5625 7.94458 7.5375 8.24265C7.5125 8.54071 7.5 8.85024 7.5 9.17124C7.5 9.49223 7.5125 9.80176 7.5375 10.0998C7.5625 10.3979 7.6 10.6998 7.65 11.0055ZM14.35 11.0055H17.75C17.8333 10.6998 17.8958 10.3979 17.9375 10.0998C17.9792 9.80176 18 9.49223 18 9.17124C18 8.85024 17.9792 8.54071 17.9375 8.24265C17.8958 7.94458 17.8333 7.6427 17.75 7.33699H14.35C14.4 7.6427 14.4375 7.94458 14.4625 8.24265C14.4875 8.54071 14.5 8.85024 14.5 9.17124C14.5 9.49223 14.4875 9.80176 14.4625 10.0998C14.4375 10.3979 14.4 10.6998 14.35 11.0055ZM13.95 5.50274H16.9C16.4167 4.73847 15.8125 4.07356 15.0875 3.508C14.3625 2.94244 13.5333 2.52209 12.6 2.24695C12.9 2.75137 13.1625 3.2749 13.3875 3.81753C13.6125 4.36016 13.8 4.9219 13.95 5.50274ZM8.1 5.50274H11.9C11.7 4.83018 11.4417 4.19584 11.125 3.59971C10.8083 3.00358 10.4333 2.43038 10 1.8801C9.56667 2.43038 9.19167 3.00358 8.875 3.59971C8.55833 4.19584 8.3 4.83018 8.1 5.50274ZM3.1 5.50274H6.05C6.2 4.9219 6.3875 4.36016 6.6125 3.81753C6.8375 3.2749 7.1 2.75137 7.4 2.24695C6.46667 2.52209 5.6375 2.94244 4.9125 3.508C4.1875 4.07356 3.58333 4.73847 3.1 5.50274Z" fill="url(#paint0_linear_49_187)"/>
<defs>
<linearGradient id="paint0_linear_49_187" x1="10" y1="0" x2="10" y2="18.3425" gradientUnits="userSpaceOnUse">
<stop stop-color="#7CD367"/>
<stop offset="1" stop-color="#288511"/>
</linearGradient>
</defs>
</svg>
