<svg width="27" height="9" viewBox="0 0 27 9" fill="none" xmlns="http://www.w3.org/2000/svg">
<path d="M14.5833 6.5625V5.10417H10.9375C10.5243 5.10417 10.178 4.96441 9.89844 4.6849C9.61892 4.40538 9.47917 4.05903 9.47917 3.64583V1.45833C9.47917 1.04514 9.61892 0.698785 9.89844 0.419271C10.178 0.139757 10.5243 0 10.9375 0H15.6771C15.9931 0 16.2543 0.103299 16.4609 0.309896C16.6675 0.516493 16.7708 0.777778 16.7708 1.09375C16.7708 1.40972 16.6675 1.67101 16.4609 1.8776C16.2543 2.0842 15.9931 2.1875 15.6771 2.1875H11.6667V3.64583H15.3125C15.7257 3.64583 16.072 3.78559 16.3516 4.0651C16.6311 4.34462 16.7708 4.69097 16.7708 5.10417V7.29167C16.7708 7.70486 16.6311 8.05122 16.3516 8.33073C16.072 8.61024 15.7257 8.75 15.3125 8.75H10.5729C10.2569 8.75 9.99566 8.6467 9.78906 8.4401C9.58247 8.23351 9.47917 7.97222 9.47917 7.65625C9.47917 7.34028 9.58247 7.07899 9.78906 6.8724C9.99566 6.6658 10.2569 6.5625 10.5729 6.5625H14.5833ZM24.0625 6.5625V5.10417H20.4167C20.0035 5.10417 19.6571 4.96441 19.3776 4.6849C19.0981 4.40538 18.9583 4.05903 18.9583 3.64583V1.45833C18.9583 1.04514 19.0981 0.698785 19.3776 0.419271C19.6571 0.139757 20.0035 0 20.4167 0H25.1562C25.4722 0 25.7335 0.103299 25.9401 0.309896C26.1467 0.516493 26.25 0.777778 26.25 1.09375C26.25 1.40972 26.1467 1.67101 25.9401 1.8776C25.7335 2.0842 25.4722 2.1875 25.1562 2.1875H21.1458V3.64583H24.7917C25.2049 3.64583 25.5512 3.78559 25.8307 4.0651C26.1102 4.34462 26.25 4.69097 26.25 5.10417V7.29167C26.25 7.70486 26.1102 8.05122 25.8307 8.33073C25.5512 8.61024 25.2049 8.75 24.7917 8.75H20.0521C19.7361 8.75 19.4748 8.6467 19.2682 8.4401C19.0616 8.23351 18.9583 7.97222 18.9583 7.65625C18.9583 7.34028 19.0616 7.07899 19.2682 6.8724C19.4748 6.6658 19.7361 6.5625 20.0521 6.5625H24.0625ZM1.45833 8.75C1.04514 8.75 0.698785 8.61024 0.419271 8.33073C0.139757 8.05122 0 7.70486 0 7.29167V1.45833C0 1.04514 0.139757 0.698785 0.419271 0.419271C0.698785 0.139757 1.04514 0 1.45833 0H5.83333C6.24653 0 6.59288 0.139757 6.8724 0.419271C7.15191 0.698785 7.29167 1.04514 7.29167 1.45833V2.22396C7.29167 2.51562 7.18229 2.76476 6.96354 2.97135C6.74479 3.17795 6.48958 3.28125 6.19792 3.28125C5.88194 3.28125 5.62066 3.17795 5.41406 2.97135C5.20747 2.76476 5.10417 2.50347 5.10417 2.1875H2.1875V6.5625H5.10417C5.10417 6.27083 5.20747 6.01562 5.41406 5.79688C5.62066 5.57812 5.88194 5.46875 6.19792 5.46875C6.48958 5.46875 6.74479 5.57812 6.96354 5.79688C7.18229 6.01562 7.29167 6.27083 7.29167 6.5625V7.29167C7.29167 7.70486 7.15191 8.05122 6.8724 8.33073C6.59288 8.61024 6.24653 8.75 5.83333 8.75H1.45833Z" fill="#27870F"/>
</svg>
