<svg width="35" height="9" viewBox="0 0 35 9" fill="none" xmlns="http://www.w3.org/2000/svg">
<path d="M0 7.65625V1.09375C0 0.777778 0.103299 0.516493 0.309896 0.309896C0.516493 0.103299 0.777778 0 1.09375 0C1.40972 0 1.67101 0.103299 1.8776 0.309896C2.0842 0.516493 2.1875 0.777778 2.1875 1.09375V2.91667H5.10417V1.09375C5.10417 0.777778 5.20747 0.516493 5.41406 0.309896C5.62066 0.103299 5.88194 0 6.19792 0C6.51389 0 6.77517 0.103299 6.98177 0.309896C7.18837 0.516493 7.29167 0.777778 7.29167 1.09375V7.65625C7.29167 7.97222 7.18837 8.23351 6.98177 8.4401C6.77517 8.6467 6.51389 8.75 6.19792 8.75C5.88194 8.75 5.62066 8.6467 5.41406 8.4401C5.20747 8.23351 5.10417 7.97222 5.10417 7.65625V5.10417H2.1875V7.65625C2.1875 7.97222 2.0842 8.23351 1.8776 8.4401C1.67101 8.6467 1.40972 8.75 1.09375 8.75C0.777778 8.75 0.516493 8.6467 0.309896 8.4401C0.103299 8.23351 0 7.97222 0 7.65625ZM11.3021 7.65625V2.1875H9.84375C9.52778 2.1875 9.26649 2.0842 9.0599 1.8776C8.8533 1.67101 8.75 1.40972 8.75 1.09375C8.75 0.777778 8.8533 0.516493 9.0599 0.309896C9.26649 0.103299 9.52778 0 9.84375 0H14.9479C15.2639 0 15.5252 0.103299 15.7318 0.309896C15.9384 0.516493 16.0417 0.777778 16.0417 1.09375C16.0417 1.40972 15.9384 1.67101 15.7318 1.8776C15.5252 2.0842 15.2639 2.1875 14.9479 2.1875H13.4896V7.65625C13.4896 7.97222 13.3863 8.23351 13.1797 8.4401C12.9731 8.6467 12.7118 8.75 12.3958 8.75C12.0799 8.75 11.8186 8.6467 11.612 8.4401C11.4054 8.23351 11.3021 7.97222 11.3021 7.65625ZM17.5 7.65625V1.45833C17.5 1.04514 17.6398 0.698785 17.9193 0.419271C18.1988 0.139757 18.5451 0 18.9583 0H25.5208C25.934 0 26.2804 0.139757 26.5599 0.419271C26.8394 0.698785 26.9792 1.04514 26.9792 1.45833V7.65625C26.9792 7.97222 26.8759 8.23351 26.6693 8.4401C26.4627 8.6467 26.2014 8.75 25.8854 8.75C25.5694 8.75 25.3082 8.6467 25.1016 8.4401C24.895 8.23351 24.7917 7.97222 24.7917 7.65625V2.1875H23.3333V6.19792C23.3333 6.51389 23.23 6.77517 23.0234 6.98177C22.8168 7.18837 22.5556 7.29167 22.2396 7.29167C21.9236 7.29167 21.6623 7.18837 21.4557 6.98177C21.2491 6.77517 21.1458 6.51389 21.1458 6.19792V2.1875H19.6875V7.65625C19.6875 7.97222 19.5842 8.23351 19.3776 8.4401C19.171 8.6467 18.9097 8.75 18.5938 8.75C18.2778 8.75 18.0165 8.6467 17.8099 8.4401C17.6033 8.23351 17.5 7.97222 17.5 7.65625ZM30.2604 8.75C29.9444 8.75 29.6832 8.6467 29.4766 8.4401C29.27 8.23351 29.1667 7.97222 29.1667 7.65625V1.09375C29.1667 0.777778 29.27 0.516493 29.4766 0.309896C29.6832 0.103299 29.9444 0 30.2604 0C30.5764 0 30.8377 0.103299 31.0443 0.309896C31.2509 0.516493 31.3542 0.777778 31.3542 1.09375V6.5625H33.9062C34.2222 6.5625 34.4835 6.6658 34.6901 6.8724C34.8967 7.07899 35 7.34028 35 7.65625C35 7.97222 34.8967 8.23351 34.6901 8.4401C34.4835 8.6467 34.2222 8.75 33.9062 8.75H30.2604Z" fill="#27870F"/>
</svg>
