<svg width="17" height="9" viewBox="0 0 17 9" fill="none" xmlns="http://www.w3.org/2000/svg">
<path d="M2.1875 8.75C1.57986 8.75 1.06337 8.53733 0.638021 8.11198C0.212674 7.68663 0 7.17014 0 6.5625V6.19792C0 5.88194 0.103299 5.62066 0.309896 5.41406C0.516493 5.20747 0.777778 5.10417 1.09375 5.10417C1.40972 5.10417 1.67101 5.20747 1.8776 5.41406C2.0842 5.62066 2.1875 5.88194 2.1875 6.19792V6.5625H4.375V1.09375C4.375 0.777778 4.4783 0.516493 4.6849 0.309896C4.89149 0.103299 5.15278 0 5.46875 0C5.78472 0 6.04601 0.103299 6.2526 0.309896C6.4592 0.516493 6.5625 0.777778 6.5625 1.09375V6.5625C6.5625 7.17014 6.34983 7.68663 5.92448 8.11198C5.49913 8.53733 4.98264 8.75 4.375 8.75H2.1875ZM10.2083 8.75C9.79514 8.75 9.44878 8.61024 9.16927 8.33073C8.88976 8.05122 8.75 7.70486 8.75 7.29167V6.5625C8.75 6.36806 8.82292 6.19792 8.96875 6.05208C9.11458 5.90625 9.28472 5.83333 9.47917 5.83333H10.2083C10.4028 5.83333 10.5729 5.90625 10.7188 6.05208C10.8646 6.19792 10.9375 6.36806 10.9375 6.5625H13.8542V5.10417H10.2083C9.79514 5.10417 9.44878 4.96441 9.16927 4.6849C8.88976 4.40538 8.75 4.05903 8.75 3.64583V1.45833C8.75 1.04514 8.88976 0.698785 9.16927 0.419271C9.44878 0.139757 9.79514 0 10.2083 0H14.5833C14.9965 0 15.3429 0.139757 15.6224 0.419271C15.9019 0.698785 16.0417 1.04514 16.0417 1.45833V2.1875C16.0417 2.38194 15.9687 2.55208 15.8229 2.69792C15.6771 2.84375 15.5069 2.91667 15.3125 2.91667H14.5833C14.3889 2.91667 14.2187 2.84375 14.0729 2.69792C13.9271 2.55208 13.8542 2.38194 13.8542 2.1875H10.9375V3.64583H14.5833C14.9965 3.64583 15.3429 3.78559 15.6224 4.0651C15.9019 4.34462 16.0417 4.69097 16.0417 5.10417V7.29167C16.0417 7.70486 15.9019 8.05122 15.6224 8.33073C15.3429 8.61024 14.9965 8.75 14.5833 8.75H10.2083Z" fill="#27870F"/>
</svg>
