<svg width="171" height="24" viewBox="0 0 171 24" fill="none" xmlns="http://www.w3.org/2000/svg">
<path d="M6.176 0.544001C9.65333 0.544001 12.4373 1.33333 14.528 2.912C16.64 4.46933 17.696 7.33867 17.696 11.52C17.696 15.6373 16.672 18.5387 14.624 20.224C12.576 21.888 9.92 22.72 6.656 22.72H0V0.544001H6.176ZM5.248 4.352V18.912H6.976C8.704 18.912 10.016 18.3787 10.912 17.312C11.808 16.224 12.256 14.2933 12.256 11.52C12.256 9.62133 12.032 8.14933 11.584 7.104C11.136 6.05867 10.528 5.344 9.76 4.96C8.992 4.55467 8.04267 4.352 6.912 4.352H5.248Z" fill="black"/>
<path d="M33.8037 0.544001L33.2598 4.288H25.4518V9.6H32.2677V13.28H25.4518V18.944H33.8037V22.72H20.2038V0.544001H33.8037Z" fill="black"/>
<path d="M53.0155 0.544001L46.8395 22.72H40.3115L33.9115 0.544001H39.4475L43.6715 18.624L47.6395 0.544001H53.0155Z" fill="black"/>
<path d="M83.093 0.544001L82.581 4.576H77.109V22.72H71.861V4.576H66.133V0.544001H83.093Z" fill="black"/>
<path d="M96.4703 22.72V13.216H89.8143V22.72H84.5663V0.544001H89.8143V9.12H96.4703V0.544001H101.718V22.72H96.4703Z" fill="black"/>
<path d="M110.487 0.544001V22.72H105.239V0.544001H110.487Z" fill="black"/>
<path d="M125.654 22.72L124.502 17.952H118.038L116.918 22.72H111.478L118.166 0.544001H124.534L131.222 22.72H125.654ZM118.934 14.144H123.606L121.27 4.352L118.934 14.144Z" fill="black"/>
<path d="M141.496 0C144.355 0 146.819 0.906667 148.888 2.72L146.232 5.504C145.443 4.90667 144.707 4.48 144.024 4.224C143.363 3.94667 142.595 3.808 141.72 3.808C140.078 3.808 138.766 4.45867 137.784 5.76C136.803 7.04 136.312 8.992 136.312 11.616C136.312 14.4533 136.686 16.4693 137.432 17.664C138.179 18.8373 139.342 19.424 140.92 19.424C142.03 19.424 143.032 19.1787 143.928 18.688V13.664H141.048L140.536 9.952H149.016V20.928C147.864 21.6747 146.595 22.2507 145.208 22.656C143.822 23.0613 142.435 23.264 141.048 23.264C137.678 23.264 135.139 22.2827 133.432 20.32C131.726 18.336 130.872 15.4347 130.872 11.616C130.872 9.184 131.331 7.09333 132.248 5.344C133.187 3.59467 134.456 2.272 136.056 1.376C137.678 0.458667 139.491 0 141.496 0Z" fill="black"/>
<path d="M160.841 0C163.999 0 166.452 1.01333 168.201 3.04C169.972 5.06667 170.857 7.92533 170.857 11.616C170.857 14.0267 170.452 16.1067 169.641 17.856C168.852 19.6053 167.7 20.9493 166.185 21.888C164.692 22.8053 162.911 23.264 160.841 23.264C158.772 23.264 156.991 22.8053 155.497 21.888C154.004 20.9707 152.852 19.648 152.041 17.92C151.252 16.1707 150.857 14.0693 150.857 11.616C150.857 9.22667 151.252 7.15733 152.041 5.408C152.852 3.65867 154.004 2.32533 155.497 1.408C156.991 0.469334 158.772 0 160.841 0ZM160.841 3.84C159.327 3.84 158.196 4.45867 157.449 5.696C156.724 6.912 156.361 8.88533 156.361 11.616C156.361 14.3467 156.735 16.3307 157.481 17.568C158.228 18.8053 159.348 19.424 160.841 19.424C162.377 19.424 163.508 18.816 164.233 17.6C164.98 16.3627 165.353 14.368 165.353 11.616C165.353 8.864 164.98 6.88 164.233 5.664C163.487 4.448 162.356 3.84 160.841 3.84Z" fill="black"/>
</svg>
