<svg width="27" height="9" viewBox="0 0 27 9" fill="none" xmlns="http://www.w3.org/2000/svg">
<path d="M0 7.65625V1.09375C0 0.777778 0.103299 0.516493 0.309896 0.309896C0.516493 0.103299 0.777778 0 1.09375 0H5.10417C5.6875 0 6.19792 0.21875 6.63542 0.65625C7.07292 1.09375 7.29167 1.60417 7.29167 2.1875V3.64583C7.29167 4.22917 7.07292 4.73958 6.63542 5.17708C6.19792 5.61458 5.6875 5.83333 5.10417 5.83333H2.1875V7.65625C2.1875 7.97222 2.0842 8.23351 1.8776 8.4401C1.67101 8.6467 1.40972 8.75 1.09375 8.75C0.777778 8.75 0.516493 8.6467 0.309896 8.4401C0.103299 8.23351 0 7.97222 0 7.65625ZM9.47917 7.65625V1.09375C9.47917 0.777778 9.58247 0.516493 9.78906 0.309896C9.99566 0.103299 10.2569 0 10.5729 0C10.8889 0 11.1502 0.103299 11.3568 0.309896C11.5634 0.516493 11.6667 0.777778 11.6667 1.09375V2.91667H14.5833V1.09375C14.5833 0.777778 14.6866 0.516493 14.8932 0.309896C15.0998 0.103299 15.3611 0 15.6771 0C15.9931 0 16.2543 0.103299 16.4609 0.309896C16.6675 0.516493 16.7708 0.777778 16.7708 1.09375V7.65625C16.7708 7.97222 16.6675 8.23351 16.4609 8.4401C16.2543 8.6467 15.9931 8.75 15.6771 8.75C15.3611 8.75 15.0998 8.6467 14.8932 8.4401C14.6866 8.23351 14.5833 7.97222 14.5833 7.65625V5.10417H11.6667V7.65625C11.6667 7.97222 11.5634 8.23351 11.3568 8.4401C11.1502 8.6467 10.8889 8.75 10.5729 8.75C10.2569 8.75 9.99566 8.6467 9.78906 8.4401C9.58247 8.23351 9.47917 7.97222 9.47917 7.65625ZM19.6875 7.65625V1.09375C19.6875 0.777778 19.7908 0.516493 19.9974 0.309896C20.204 0.103299 20.4653 0 20.7812 0H24.7917C25.375 0 25.8854 0.21875 26.3229 0.65625C26.7604 1.09375 26.9792 1.60417 26.9792 2.1875V3.64583C26.9792 4.22917 26.7604 4.73958 26.3229 5.17708C25.8854 5.61458 25.375 5.83333 24.7917 5.83333H21.875V7.65625C21.875 7.97222 21.7717 8.23351 21.5651 8.4401C21.3585 8.6467 21.0972 8.75 20.7812 8.75C20.4653 8.75 20.204 8.6467 19.9974 8.4401C19.7908 8.23351 19.6875 7.97222 19.6875 7.65625ZM2.1875 3.64583H5.10417V2.1875H2.1875V3.64583ZM21.875 3.64583H24.7917V2.1875H21.875V3.64583Z" fill="#27870F"/>
</svg>
